<?xml version="1.0" encoding="UTF-8"?>
<svg id="Calque_1" data-name="Calque 1" xmlns="http://www.w3.org/2000/svg" viewBox="0 0 422.91 854.61">
  <defs>
    <style>
      .cls-1 {
        fill: #8edf90;
      }

      .cls-2 {
        fill: #fff;
      }

      .cls-3 {
        fill: #a0a0d9;
      }

      .cls-4 {
        fill: #ffa631;
      }

      .cls-5 {
        fill: #f5a4e5;
      }

      .cls-6 {
        fill: #fb9292;
      }

      .cls-7 {
        fill: #ffdb26;
      }

      .cls-8 {
        fill: gray;
      }

      .cls-9 {
        fill: #92b5fb;
      }
    </style>
  </defs>
  <path class="cls-6" d="M1.36,443.3c1.09-1.04,2.99-2.58,5.71-3.53,2.47-.86,4.52-.85,5.52-.84,16,.06,19.47-1.42,24.53,1.59,1.1.65,2.94,2.64,6.62,6.62,2.78,3,7.25,7.61,11.74,13.53,16.92,22.29,29.52,44.83,33.96,43.15,3.49-1.32,2.67-17.85,1.28-46.21-.28-5.62-.69-12.34,3.57-16.09.98-.86,3.17-2.55,18.38-2.3,9.74.16,14.65.28,16.75,2.14,3.65,3.22,3.32,8.24,3.42,20.08.07,8.43.93,16.85.77,25.28-.58,29.51-.88,44.26.26,52.6.38,14.19.37,24.87.19,29.39-.05,1.23-.17,3.52-.96,6.35-.37,1.32-.96,4.1-2.3,5.62-1.8,2.04-4.83,3.51-17.87,3.06-9.4-.32-14.1-.48-17.11-2.04-5.49-2.85-7.42-7.33-11.23-13.79-5.59-9.47-13.3-17.51-19.91-26.3-17.47-23.2-19.49-24.48-20.8-23.97-2.42.94-1.35,7.58-.14,33.67.92,19.78.81,26.84-3.84,30.21-.97.71-2.1,1.22-14.79,1.45-12.17.22-18.29.3-20.43-1.28-5.38-3.98-4.28-12.55-3.83-27.06.4-12.93-1.24-25.88-.77-38.81.6-16.6,1.16-39.7,1.28-72.51Z"/>
  <path class="cls-4" d="M293.96,494.11c-6.44-24.11-23.23-37.37-30.13-42.13-5.28-3.64-19.61-12.53-39.83-13.37,0,0-27.85-1.16-51.83,17.45-4.3,3.33-7.02,6.21-7.66,6.89-12.36,13.2-15.37,28.22-16.34,33.45-2.65,14.22-.16,25.45,1.28,31.66,1.89,8.15,5.6,23.23,18.64,36.77,15.07,15.64,33.08,19.33,38.81,20.43,25.6,4.88,45.59-5.18,51.83-8.68,5.02-2.81,18.52-10.61,28.09-27.06,14.73-25.34,8.34-50.95,7.15-55.4ZM262.81,544.15c-6.74,8.79-16.32,14.8-17.36,13.79-.69-.67,2.86-4.04,5.11-9.7,3.08-7.79,2.98-18.16-1.53-26.81-6.19-11.87-20.15-19.43-33.7-17.36-1.68.26-11.71,1.94-18.89,10.72-9.11,11.14-6.47,24.95-5.87,28.09,1.85,9.69,6.89,14.61,6.13,15.17-1.37,1.01-20.55-12.62-25.28-35.86-.87-4.3-3.72-19.48,4.85-34.98,7.11-12.86,18.01-18.56,21.7-20.43,12.22-6.17,23.64-5.94,29.36-5.36,4.44.45,17.77,2,29.62,12.77,12.05,10.95,14.82,24.38,15.57,28.34.25,1.32,4.14,23.57-9.7,41.62Z"/>
  <path class="cls-1" d="M326.13,440.24c1.35.27,8.9.18,24,0,4.6-.05,29.37-.36,44.17-.51,18.85-.19,23.88-.14,26.81,3.83,1.7,2.31.45,2.9,1.53,20.94.38,6.32.77,10.15-1.79,12.51-.86.79-2.07,1.43-7.4,1.79-6.66.44-11.81-.09-19.66-.51-7.67-.41-8.65-.21-9.7.51-3.5,2.4-3.65,7.74-3.57,16.34.11,12.93.62,22.78.78,26.04.74,15.15-.08,13.75.75,28.09.32,5.61,0,11.26.51,16.85.65,7.07,1.69,12.18-1.28,14.81-1.08.96-2.29,1.23-4.85,1.53-9.92,1.16-14.62-.28-24.26-.26-6.56.02-7.51.69-9.45-.51-4.45-2.77-4.74-9.69-4.85-17.11-.25-16.98.6-29.96,1.02-38.55,1.06-21.5-.38-17.43.77-27.83,1.24-11.21,2.77-15.31,0-18.38-3.54-3.93-11.95-2.99-25.02-1.53-7.09.79-8.55,1.57-10.72.26-5.73-3.45-5.12-14.54-4.6-24,.34-6.19-.1-10.2,2.68-12.69,1.62-1.45,3.52-1.84,5.49-2.12,9.43-1.33,17.63.31,18.64.51Z"/>
  <path class="cls-8" d="M46.04,609.51c-.1,4.97-.17,8.05,1.39,9.94,3.66,4.41,12.72-2.06,17.76,2.06,2.75,2.25,1.6,5.45,1.9,18.89.33,14.72,1.92,20.74-1.47,22.74-.73.43-3.24.29-8.24-.01-5.11-.31-7.69-.48-8.53-1.28-3.22-3.06,1.38-9.37-1.79-12.71-1.9-2-5.38-1.65-10.97-1.08-3.97.4-5.96.6-7.4,2.04-1.77,1.76-1.47,3.91-1.28,11.74.28,11.36-.2,12.87,1.47,15.12,2.08,2.8,5.18,3.64,9.16,4.65,6.51,1.66,9.6.77,20.76.4,13.29-.44,16.58.55,21.76-2.45,1.51-.88,5-2.96,6.83-7,1.83-4.04,1.07-7.97.77-9.7-.11-.64-.33-11.15-.77-32.17-.41-19.55,1.85-23.93-2.12-27.34-1.7-1.46-2.59-1.06-17.79-1.77-13.24-.61-18.63-1.19-20.68,2.04-.67,1.05-.7,2.66-.77,5.87Z"/>
  <path class="cls-8" d="M117.53,603.13c-1.59-.91-4.04-.95-8.94-1.02-3.9-.06-5.88-.07-7.4,1.02-3.28,2.35-2.76,8.26-2.55,10.98.81,10.72-.49,21.51-.26,32.26.45,20.05-1.28,27.36,3.83,31.32.9.7,4.45,3.18,9.45,3.93,2.96.45,5.19.11,6.89-.1,2.88-.35,1.98-.04,16.85,0,18.1.04,22.72-.39,26.11-3.79,1.46-1.46,2.42-3.23,2.49-3.36,2.8-5.2,1.65-10.73,1.28-12.77-.73-3.99-.49-13.3,0-31.91.43-16.45,2.6-24.84-1.53-27.06-1.22-.66-3.87-.52-9.19-.26-4.36.22-6.54.33-7.55.91-2.99,1.73-3.41,6.31-2.66,23.85.36,8.5-.63,17.07.26,25.53.37,3.5.98,7.93-1.53,9.96-1.31,1.06-2.77.89-8.88.51-9.98-.62-10.32-.43-11.29-1.02-3.93-2.42-3.78-9.07-3.32-19.15,1.22-26.55,2.77-37.08-2.04-39.83Z"/>
  <path class="cls-8" d="M196.68,621.77c1.06-1.22,2.75-1.78,15.66-.51,3.71.37,11.81,1.22,18.3-.77,1.03-.31,2.57-.87,3.57-2.3.63-.89,1.08-2.16.77-6.89-.25-3.68-.37-5.52-.77-6.38-2.21-4.81-12.81-2.14-30.89-2.83-13.39-.51-21.41-2.51-25.02,2.32-.68.91-1.07,2.24-1.87,4.91-1.29,4.34-1.51,7.43-1.96,14.75-.62,10-.76,13.25.26,17.79.58,2.6,1.28,4.43,2.81,5.95,1.73,1.73,4,2.52,8.28,3.06,5.29.68,9.46.45,12.4.26,12.36-.8,16.85-1.72,18.13.51.39.67.26,2.07,0,4.85-.25,2.7-.4,4.32-1.02,5.36-1.67,2.79-7.15,2.24-13.28,1.79-21.08-1.56-24.02-.03-25.08,1.71-.36.58-.39,2.54-.45,6.46-.1,6.09.62,7.25,1.02,7.77,1.57,2.01,4.47,2.18,6.13,2.26,12.53.57,23.76.1,28.68,0,9.05-.19,12.65.52,17.53-2.26,1.5-.85,4.17-2.41,6.14-5.47,2.81-4.37.93-6.69,1.27-19.91.18-7.06.81-10.07-1.27-14.19-.58-1.16-1.72-3.42-4.08-5.24-1.92-1.48-5.79-3.56-26.15-2.28-3.86.24-6.47.49-8.34-1.28-2.37-2.24-2.84-7.06-.77-9.45Z"/>
  <path class="cls-8" d="M243.66,619.22c1.19,1.15,4.13,1.12,9.96,1.02,5.65-.1,6.74-.48,7.91.51,1.56,1.32,1.31,3.41,1.53,9.19.2,5.31.25-.81.77,10.47.36,7.99.55,11.99.51,15.83-.13,12.62-.2,18.93-.26,19.15-.19.69-.8,2.77.26,4.19.68.92,1.78,1.18,3.18,1.43,5.31.94,9.31.78,13.16,0,1.09-.22,2.19-.5,2.81-1.43.91-1.37.21-3.3,0-3.94-.54-1.62.01-1.23,0-14.04-.02-19.76-.03-29.64-.26-31.15-.4-2.69-1.41-8.56.77-9.7.66-.34,1.18-.04,3.83.26,2.51.28,2.17.28,5.62.26,5.24-.05,6.08.76,9.19,0,1.36-.33,2.42-.77,3.32-1.79,1.31-1.48.94-2.91,1.05-8.68.1-4.96.41-6.02-.53-7.15-1.54-1.84-4.59-1.61-5.62-1.55-19.04,1-38.22-1.91-57.19,0-.35,1.66-.8,4.13-1.02,7.17-.41,5.58-.61,8.38,1.02,9.96Z"/>
  <path class="cls-8" d="M357.53,602.62c1.51-.48,4.37-.99,7.15-1.2,3.99-.3,10.1-.77,14.24,1.6,4.69,2.69,4.85,7.87,8.23,20.78,1.11,4.25,2.95,9.9,6.64,21.19h0c7.85,24.6,12.18,31.07,9.19,34.57-1.46,1.7-3.95,1.83-8.94,2.07-4.37.22-8.68.43-10.47-2.07-1.89-2.65.27-6.37-2.81-9.81-1.14-1.28-2.54-2.01-12.26-2.04-11.63-.04-12.65-.5-14.21.85-3.67,3.2-.91,8.31-4.69,11-.62.44-1.63.97-10.98.66-5.26-.18-7.89-.26-8.43-.66-4.6-3.42,3.44-17.3,10.98-42.49,5.25-17.55,7.59-31.7,16.34-34.47Z"/>
  <path class="cls-2" d="M359.98,651.64c.71.64,1.41.4,6.6.27,5.31-.14,5.83.08,6.52-.53,1.34-1.17,1.2-3.62-1.02-11.88-2.44-9.08-3.67-13.61-5.05-13.65-1.41-.03-2.98,5.2-6.08,15.68-1.76,5.97-2.4,8.83-.97,10.11Z"/>
  <path class="cls-7" d="M27.26,736.41c-2.84,5.13,4.6,14.61,9.34,18.89,6.75,6.1,14.53,7.56,18.64,7.91,8.96.77,15.57-2.43,16.85-3.06,10.57-5.29,19.57-17.79,16.5-23.49-1.99-3.69-7.71-2.04-30.67-2.3-21.95-.25-28.49-1.89-30.67,2.04Z"/>
  <path class="cls-7" d="M88.61,721.65c2.76-5.17-4.81-14.54-9.6-18.76-6.83-6-14.63-7.36-18.75-7.65-8.97-.64-15.54,2.64-16.81,3.3-10.5,5.44-19.32,18.07-16.17,23.72,2.04,3.66,7.73,1.93,30.69,1.87,21.96-.06,28.51,1.49,30.63-2.47Z"/>
  <path class="cls-7" d="M29.7,774.19c5.9-4.04,10.64-1.37,28.21-.77,20.89.72,25.59-2.64,31.29,2.05,3.91,3.22,2.7,5.7,7.9,21.95,2.77,8.64,2.9,7.28,10.98,29.62,6.64,18.34,6.74,19.78,5.87,21.45-3.38,6.54-14.45,3.01-52.34,4.34-13.01.46-26.06-.7-39.06,0-8.98.49-17.74,1.3-20.16-3.06-1.67-3.01.37-6.81,2.54-11.49,6.9-14.84,10.13-31.13,15.83-46.47,3.82-10.28,5.8-15.47,8.94-17.62Z"/>
  <path class="cls-5" d="M252.85,724.59c-.82-5.23-6.34-8.46-17.36-14.72-7.74-4.4-12.16-6.91-18.64-8.96-19.01-6.02-35.93-1.82-42.87,0-7.77,2.03-23,6.23-36.53,19.91-16.09,16.27-19.32,35.39-20.43,42.5-1.03,6.64-3.28,22.5,4.09,40.48,7.08,17.29,19.05,26.77,26.04,32.17,6.7,5.17,19.46,14.78,38.66,17.25,16.69,2.15,29.54-2.22,38.45-5.25,5.77-1.96,12.15-4.2,18.1-9.45.86-.76.15-.2,8.71-8.94,4.6-4.69,5.13-5.18,5.36-6.38.36-1.83-.08-4.68-12-15.83-6.42-6.01-9.68-9.02-12.04-9.32-7.33-.95-10.07,7.41-20.04,12.39-11.14,5.56-26.79,4.67-38.36-3.06-13.44-8.98-16.18-23.7-16.62-26.3-.51-3.01-2.98-19.82,8.87-32.51,9.29-9.96,21.46-11.03,25.6-11.4,3.09-.27,18.09-1.6,28.6,7.4,3.8,3.26,4.66,5.85,8.17,6.38,6.52,1,12.73-6.54,16.6-11.23,5.01-6.08,8.43-10.23,7.66-15.13Z"/>
  <path class="cls-9" d="M395.58,809.17c1.46-.24,10.73-1.64,18.64,4.85,5.92,4.85,9.69,12.98,8.17,21.45-1.96,10.93-11.55,15.75-13.33,16.6-7.17,3.4-18.28,4.29-26.24-3.06-7.2-6.65-8.59-17.07-5.36-25.28,4.75-12.08,17.55-14.46,18.13-14.55Z"/>
  <path class="cls-3" d="M361.87,701.43c2.81-1.34,2.29-.1,23.74-1.53,11.28-.75,16.08-1.4,18.31,1.53,2.69,3.53-.15,9.86-1.21,12.26-7.29,16.5-11.62,34.19-18.64,50.81-9.3,22.01-23.5,66.71-29.87,81.96-.38.91-1.26,2.95-3.25,4.7-3.87,3.39-8.86,2.96-15.64,2.71-19.76-.73-22.47,1.21-26.55-2.3-1.78-1.53-3.14-4.34-5.87-9.96-3.93-8.09-5.91-14.6-6.13-15.32-5.73-18.82-13.2-37.07-19.66-55.66-15.51-44.63-27.26-63.85-20.6-69.35.51-.42.46-.22,19.58-1.89,4.16-.36,8.35.04,12.51-.26,3.1-.22,5.61-.52,7.91,1.02,1.7,1.14,2.46,2.72,3.32,4.6,2.83,6.22,4.25,9.33,4.85,11.74,2.63,10.53,2.63,3.06,15.32,47.23,6.17,21.46,6.81,25.47,8.87,25.53,4.39.13,9.03-18.01,16.67-48.51,6.31-25.19,7.71-35.21,16.34-39.32Z"/>
  <path class="cls-9" d="M403.94,701.28c-2.24-2.94-7.04-2.29-18.32-1.54-21.45,1.43-20.93.2-23.74,1.54-8.64,4.11-10.03,14.12-16.34,39.32-7.08,28.29-11.59,45.94-15.71,48.25v64.71c1.67.02,3.49.07,5.49.14,6.79.25,11.78.68,15.64-2.71,2-1.74,2.88-3.79,3.26-4.69,6.37-15.25,20.57-59.95,29.87-81.96,7.02-16.62,11.35-34.31,18.64-50.81,1.05-2.39,3.89-8.72,1.21-12.25Z"/>
</svg>