<?xml version="1.0" encoding="UTF-8"?>
<svg id="Calque_1" xmlns="http://www.w3.org/2000/svg" version="1.1" viewBox="0 0 422.9 416">
  <!-- Generator: Adobe Illustrator 29.8.3, SVG Export Plug-In . SVG Version: 2.1.1 Build 3)  -->
  <defs>
    <style>
      .st0 {
        fill: #8edf90;
      }

      .st1 {
        fill: #fff;
      }

      .st2 {
        fill: #a0a0d9;
      }

      .st3 {
        fill: #ffa631;
      }

      .st4 {
        fill: #f5a4e5;
      }

      .st5 {
        fill: #fb9292;
      }

      .st6 {
        fill: #ffdb26;
      }

      .st7 {
        fill: gray;
      }

      .st8 {
        fill: #92b5fb;
      }
    </style>
  </defs>
  <path class="st5" d="M1.4,4.7c1.1-1,3-2.6,5.7-3.5,2.5-.9,4.5-.9,5.5-.8,16,0,19.5-1.4,24.5,1.6,1.1.6,2.9,2.6,6.6,6.6,2.8,3,7.2,7.6,11.7,13.5,16.9,22.3,29.5,44.8,34,43.1,3.5-1.3,2.7-17.9,1.3-46.2-.3-5.6-.7-12.3,3.6-16.1,1-.9,3.2-2.5,18.4-2.3,9.7.2,14.7.3,16.8,2.1,3.6,3.2,3.3,8.2,3.4,20.1,0,8.4.9,16.9.8,25.3-.6,29.5-.9,44.3.3,52.6.4,14.2.4,24.9.2,29.4,0,1.2-.2,3.5-1,6.3-.4,1.3-1,4.1-2.3,5.6-1.8,2-4.8,3.5-17.9,3.1-9.4-.3-14.1-.5-17.1-2-5.5-2.8-7.4-7.3-11.2-13.8-5.6-9.5-13.3-17.5-19.9-26.3-17.5-23.2-19.5-24.5-20.8-24-2.4.9-1.3,7.6-.1,33.7.9,19.8.8,26.8-3.8,30.2-1,.7-2.1,1.2-14.8,1.5-12.2.2-18.3.3-20.4-1.3-5.4-4-4.3-12.5-3.8-27.1.4-12.9-1.2-25.9-.8-38.8C.7,60.6,1.2,37.5,1.4,4.7h0Z"/>
  <path class="st3" d="M294,55.5c-6.4-24.1-23.2-37.4-30.1-42.1C258.5,9.7,244.2.9,224,0c0,0-27.9-1.2-51.8,17.5-4.3,3.3-7,6.2-7.7,6.9-12.4,13.2-15.4,28.2-16.3,33.5-2.6,14.2-.2,25.5,1.3,31.7,1.9,8.2,5.6,23.2,18.6,36.8,15.1,15.6,33.1,19.3,38.8,20.4,25.6,4.9,45.6-5.2,51.8-8.7,5-2.8,18.5-10.6,28.1-27.1,14.7-25.3,8.3-51,7.1-55.4h0ZM262.8,105.6c-6.7,8.8-16.3,14.8-17.4,13.8-.7-.7,2.9-4,5.1-9.7,3.1-7.8,3-18.2-1.5-26.8-6.2-11.9-20.1-19.4-33.7-17.4-1.7.3-11.7,1.9-18.9,10.7-9.1,11.1-6.5,25-5.9,28.1,1.9,9.7,6.9,14.6,6.1,15.2-1.4,1-20.6-12.6-25.3-35.9-.9-4.3-3.7-19.5,4.9-35,7.1-12.9,18-18.6,21.7-20.4,12.2-6.2,23.6-5.9,29.4-5.4,4.4.5,17.8,2,29.6,12.8,12,11,14.8,24.4,15.6,28.3.2,1.3,4.1,23.6-9.7,41.6h0Z"/>
  <path class="st0" d="M326.1,1.6c1.4.3,8.9.2,24,0,4.6,0,29.4-.4,44.2-.5,18.9-.2,23.9-.1,26.8,3.8,1.7,2.3.5,2.9,1.5,20.9.4,6.3.8,10.1-1.8,12.5-.9.8-2.1,1.4-7.4,1.8-6.7.4-11.8,0-19.7-.5-7.7-.4-8.6-.2-9.7.5-3.5,2.4-3.6,7.7-3.6,16.3.1,12.9.6,22.8.8,26,.7,15.2,0,13.8.8,28.1.3,5.6,0,11.3.5,16.8.6,7.1,1.7,12.2-1.3,14.8-1.1,1-2.3,1.2-4.9,1.5-9.9,1.2-14.6-.3-24.3-.3-6.6,0-7.5.7-9.5-.5-4.5-2.8-4.7-9.7-4.9-17.1-.2-17,.6-30,1-38.5,1.1-21.5-.4-17.4.8-27.8,1.2-11.2,2.8-15.3,0-18.4-3.5-3.9-12-3-25-1.5-7.1.8-8.5,1.6-10.7.3-5.7-3.5-5.1-14.5-4.6-24,.3-6.2-.1-10.2,2.7-12.7,1.6-1.5,3.5-1.8,5.5-2.1,9.4-1.3,17.6.3,18.6.5h0Z"/>
  <path class="st7" d="M46,170.9c0,5-.2,8,1.4,9.9,3.7,4.4,12.7-2.1,17.8,2.1,2.8,2.2,1.6,5.5,1.9,18.9.3,14.7,1.9,20.7-1.5,22.7-.7.4-3.2.3-8.2,0-5.1-.3-7.7-.5-8.5-1.3-3.2-3.1,1.4-9.4-1.8-12.7-1.9-2-5.4-1.7-11-1.1-4,.4-6,.6-7.4,2-1.8,1.8-1.5,3.9-1.3,11.7.3,11.4-.2,12.9,1.5,15.1,2.1,2.8,5.2,3.6,9.2,4.7,6.5,1.7,9.6.8,20.8.4,13.3-.4,16.6.5,21.8-2.5,1.5-.9,5-3,6.8-7s1.1-8,.8-9.7c-.1-.6-.3-11.2-.8-32.2-.4-19.5,1.8-23.9-2.1-27.3-1.7-1.5-2.6-1.1-17.8-1.8-13.2-.6-18.6-1.2-20.7,2-.7,1-.7,2.7-.8,5.9h0Z"/>
  <path class="st7" d="M117.5,164.5c-1.6-.9-4-1-8.9-1-3.9,0-5.9,0-7.4,1-3.3,2.3-2.8,8.3-2.6,11,.8,10.7-.5,21.5-.3,32.3.4,20-1.3,27.4,3.8,31.3.9.7,4.4,3.2,9.4,3.9,3,.5,5.2.1,6.9,0,2.9-.3,2,0,16.9,0,18.1,0,22.7-.4,26.1-3.8,1.5-1.5,2.4-3.2,2.5-3.4,2.8-5.2,1.6-10.7,1.3-12.8-.7-4-.5-13.3,0-31.9.4-16.5,2.6-24.8-1.5-27.1-1.2-.7-3.9-.5-9.2-.3-4.4.2-6.5.3-7.6.9-3,1.7-3.4,6.3-2.7,23.8.4,8.5-.6,17.1.3,25.5.4,3.5,1,7.9-1.5,10-1.3,1.1-2.8.9-8.9.5-10-.6-10.3-.4-11.3-1-3.9-2.4-3.8-9.1-3.3-19.2,1.2-26.5,2.8-37.1-2-39.8h0Z"/>
  <path class="st7" d="M196.7,183.2c1.1-1.2,2.8-1.8,15.7-.5,3.7.4,11.8,1.2,18.3-.8,1-.3,2.6-.9,3.6-2.3.6-.9,1.1-2.2.8-6.9-.2-3.7-.4-5.5-.8-6.4-2.2-4.8-12.8-2.1-30.9-2.8-13.4-.5-21.4-2.5-25,2.3-.7.9-1.1,2.2-1.9,4.9-1.3,4.3-1.5,7.4-2,14.8-.6,10-.8,13.2.3,17.8.6,2.6,1.3,4.4,2.8,6,1.7,1.7,4,2.5,8.3,3.1,5.3.7,9.5.5,12.4.3,12.4-.8,16.9-1.7,18.1.5.4.7.3,2.1,0,4.8-.2,2.7-.4,4.3-1,5.4-1.7,2.8-7.1,2.2-13.3,1.8-21.1-1.6-24,0-25.1,1.7-.4.6-.4,2.5-.4,6.5-.1,6.1.6,7.2,1,7.8,1.6,2,4.5,2.2,6.1,2.3,12.5.6,23.8,0,28.7,0,9.1-.2,12.6.5,17.5-2.3,1.5-.8,4.2-2.4,6.1-5.5,2.8-4.4.9-6.7,1.3-19.9.2-7.1.8-10.1-1.3-14.2-.6-1.2-1.7-3.4-4.1-5.2-1.9-1.5-5.8-3.6-26.1-2.3-3.9.2-6.5.5-8.3-1.3-2.4-2.2-2.8-7.1-.8-9.5h0Z"/>
  <path class="st7" d="M243.7,180.6c1.2,1.2,4.1,1.1,10,1,5.7,0,6.7-.5,7.9.5,1.6,1.3,1.3,3.4,1.5,9.2.2,5.3.2-.8.8,10.5.4,8,.5,12,.5,15.8-.1,12.6-.2,18.9-.3,19.2-.2.7-.8,2.8.3,4.2.7.9,1.8,1.2,3.2,1.4,5.3.9,9.3.8,13.2,0,1.1-.2,2.2-.5,2.8-1.4.9-1.4.2-3.3,0-3.9-.5-1.6,0-1.2,0-14,0-19.8,0-29.6-.3-31.2-.4-2.7-1.4-8.6.8-9.7.7-.3,1.2,0,3.8.3,2.5.3,2.2.3,5.6.3,5.2,0,6.1.8,9.2,0,1.4-.3,2.4-.8,3.3-1.8,1.3-1.5.9-2.9,1-8.7.1-5,.4-6-.5-7.2-1.5-1.8-4.6-1.6-5.6-1.5-19,1-38.2-1.9-57.2,0-.4,1.7-.8,4.1-1,7.2-.4,5.6-.6,8.4,1,10h0Z"/>
  <path class="st7" d="M357.5,164c1.5-.5,4.4-1,7.1-1.2,4-.3,10.1-.8,14.2,1.6,4.7,2.7,4.9,7.9,8.2,20.8,1.1,4.2,3,9.9,6.6,21.2h0c7.9,24.6,12.2,31.1,9.2,34.6-1.5,1.7-4,1.8-8.9,2.1-4.4.2-8.7.4-10.5-2.1-1.9-2.7.3-6.4-2.8-9.8-1.1-1.3-2.5-2-12.3-2-11.6,0-12.6-.5-14.2.8-3.7,3.2-.9,8.3-4.7,11-.6.4-1.6,1-11,.7-5.3-.2-7.9-.3-8.4-.7-4.6-3.4,3.4-17.3,11-42.5,5.2-17.5,7.6-31.7,16.3-34.5h0Z"/>
  <path class="st1" d="M360,213c.7.6,1.4.4,6.6.3,5.3-.1,5.8,0,6.5-.5,1.3-1.2,1.2-3.6-1-11.9-2.4-9.1-3.7-13.6-5-13.7-1.4,0-3,5.2-6.1,15.7-1.8,6-2.4,8.8-1,10.1h0Z"/>
  <path class="st6" d="M27.3,297.8c-2.8,5.1,4.6,14.6,9.3,18.9,6.8,6.1,14.5,7.6,18.6,7.9,9,.8,15.6-2.4,16.8-3.1,10.6-5.3,19.6-17.8,16.5-23.5-2-3.7-7.7-2-30.7-2.3-22-.2-28.5-1.9-30.7,2h0Z"/>
  <path class="st6" d="M88.6,283.1c2.8-5.2-4.8-14.5-9.6-18.8-6.8-6-14.6-7.4-18.8-7.7-9-.6-15.5,2.6-16.8,3.3-10.5,5.4-19.3,18.1-16.2,23.7,2,3.7,7.7,1.9,30.7,1.9,22,0,28.5,1.5,30.6-2.5h0Z"/>
  <path class="st6" d="M29.7,335.6c5.9-4,10.6-1.4,28.2-.8,20.9.7,25.6-2.6,31.3,2,3.9,3.2,2.7,5.7,7.9,22,2.8,8.6,2.9,7.3,11,29.6,6.6,18.3,6.7,19.8,5.9,21.5-3.4,6.5-14.4,3-52.3,4.3-13,.5-26.1-.7-39.1,0-9,.5-17.7,1.3-20.2-3.1-1.7-3,.4-6.8,2.5-11.5,6.9-14.8,10.1-31.1,15.8-46.5,3.8-10.3,5.8-15.5,8.9-17.6h0Z"/>
  <path class="st4" d="M252.9,286c-.8-5.2-6.3-8.5-17.4-14.7-7.7-4.4-12.2-6.9-18.6-9-19-6-35.9-1.8-42.9,0-7.8,2-23,6.2-36.5,19.9-16.1,16.3-19.3,35.4-20.4,42.5-1,6.6-3.3,22.5,4.1,40.5,7.1,17.3,19.1,26.8,26,32.2,6.7,5.2,19.5,14.8,38.7,17.2,16.7,2.2,29.5-2.2,38.4-5.2,5.8-2,12.1-4.2,18.1-9.5.9-.8.1-.2,8.7-8.9,4.6-4.7,5.1-5.2,5.4-6.4.4-1.8,0-4.7-12-15.8-6.4-6-9.7-9-12-9.3-7.3-1-10.1,7.4-20,12.4-11.1,5.6-26.8,4.7-38.4-3.1-13.4-9-16.2-23.7-16.6-26.3-.5-3-3-19.8,8.9-32.5,9.3-10,21.5-11,25.6-11.4,3.1-.3,18.1-1.6,28.6,7.4,3.8,3.3,4.7,5.8,8.2,6.4,6.5,1,12.7-6.5,16.6-11.2,5-6.1,8.4-10.2,7.7-15.1h0Z"/>
  <path class="st8" d="M395.6,370.6c1.5-.2,10.7-1.6,18.6,4.8,5.9,4.8,9.7,13,8.2,21.5-2,10.9-11.5,15.8-13.3,16.6-7.2,3.4-18.3,4.3-26.2-3.1-7.2-6.7-8.6-17.1-5.4-25.3,4.8-12.1,17.5-14.5,18.1-14.5h0Z"/>
  <path class="st2" d="M361.9,262.8c2.8-1.3,2.3,0,23.7-1.5,11.3-.8,16.1-1.4,18.3,1.5,2.7,3.5-.1,9.9-1.2,12.3-7.3,16.5-11.6,34.2-18.6,50.8-9.3,22-23.5,66.7-29.9,82-.4.9-1.3,3-3.2,4.7-3.9,3.4-8.9,3-15.6,2.7-19.8-.7-22.5,1.2-26.5-2.3-1.8-1.5-3.1-4.3-5.9-10-3.9-8.1-5.9-14.6-6.1-15.3-5.7-18.8-13.2-37.1-19.7-55.7-15.5-44.6-27.3-63.8-20.6-69.3.5-.4.5-.2,19.6-1.9,4.2-.4,8.4,0,12.5-.3,3.1-.2,5.6-.5,7.9,1,1.7,1.1,2.5,2.7,3.3,4.6,2.8,6.2,4.2,9.3,4.9,11.7,2.6,10.5,2.6,3.1,15.3,47.2,6.2,21.5,6.8,25.5,8.9,25.5,4.4.1,9-18,16.7-48.5,6.3-25.2,7.7-35.2,16.3-39.3h0Z"/>
  <path class="st8" d="M403.9,262.7c-2.2-2.9-7-2.3-18.3-1.5-21.5,1.4-20.9.2-23.7,1.5-8.6,4.1-10,14.1-16.3,39.3-7.1,28.3-11.6,45.9-15.7,48.2v64.7c1.7,0,3.5,0,5.5.1,6.8.2,11.8.7,15.6-2.7,2-1.7,2.9-3.8,3.3-4.7,6.4-15.2,20.6-60,29.9-82,7-16.6,11.4-34.3,18.6-50.8,1-2.4,3.9-8.7,1.2-12.2h0Z"/>
</svg>